<svg width="66" height="55" viewBox="0 0 66 55" fill="none" xmlns="http://www.w3.org/2000/svg">
<path d="M8.2 42.9384H9.328V46.5504H10.288L13.576 42.9384H14.92L11.248 46.9464L15.04 51.3384H13.6L10.288 47.4864H9.328V51.3384H8.2V42.9384ZM18.768 51.4584C18.36 51.4584 17.972 51.3944 17.604 51.2664C17.236 51.1304 16.912 50.9304 16.632 50.6664C16.352 50.3944 16.128 50.0544 15.96 49.6464C15.792 49.2384 15.708 48.7624 15.708 48.2184V47.9784C15.708 47.4664 15.792 47.0144 15.96 46.6224C16.128 46.2304 16.352 45.9064 16.632 45.6504C16.912 45.3864 17.236 45.1904 17.604 45.0624C17.972 44.9264 18.36 44.8584 18.768 44.8584C19.176 44.8584 19.564 44.9264 19.932 45.0624C20.3 45.1904 20.624 45.3864 20.904 45.6504C21.184 45.9064 21.408 46.2304 21.576 46.6224C21.744 47.0144 21.828 47.4664 21.828 47.9784V48.2184C21.828 48.7624 21.744 49.2384 21.576 49.6464C21.408 50.0544 21.184 50.3944 20.904 50.6664C20.624 50.9304 20.3 51.1304 19.932 51.2664C19.564 51.3944 19.176 51.4584 18.768 51.4584ZM18.768 50.4984C19.008 50.4984 19.248 50.4584 19.488 50.3784C19.728 50.2904 19.94 50.1584 20.124 49.9824C20.308 49.7984 20.456 49.5624 20.568 49.2744C20.688 48.9864 20.748 48.6344 20.748 48.2184V47.9784C20.748 47.5944 20.688 47.2664 20.568 46.9944C20.456 46.7224 20.308 46.4984 20.124 46.3224C19.94 46.1464 19.728 46.0184 19.488 45.9384C19.248 45.8584 19.008 45.8184 18.768 45.8184C18.528 45.8184 18.288 45.8584 18.048 45.9384C17.808 46.0184 17.596 46.1464 17.412 46.3224C17.228 46.4984 17.076 46.7224 16.956 46.9944C16.844 47.2664 16.788 47.5944 16.788 47.9784V48.2184C16.788 48.6344 16.844 48.9864 16.956 49.2744C17.076 49.5624 17.228 49.7984 17.412 49.9824C17.596 50.1584 17.808 50.2904 18.048 50.3784C18.288 50.4584 18.528 50.4984 18.768 50.4984ZM23.3233 44.9784H24.3073V46.1784C24.5233 45.7544 24.8233 45.4304 25.2073 45.2064C25.5993 44.9744 26.0513 44.8584 26.5633 44.8584C27.3633 44.8584 28.0033 45.1224 28.4833 45.6504C28.9633 46.1704 29.2033 46.9464 29.2033 47.9784V48.2184C29.2033 48.7624 29.1393 49.2384 29.0113 49.6464C28.8833 50.0464 28.7033 50.3824 28.4713 50.6544C28.2393 50.9184 27.9593 51.1184 27.6313 51.2544C27.3113 51.3904 26.9553 51.4584 26.5633 51.4584C26.0193 51.4584 25.5633 51.3384 25.1953 51.0984C24.8353 50.8584 24.5633 50.5584 24.3793 50.1984V53.7384H23.3233V44.9784ZM26.3233 50.5224C26.5793 50.5224 26.8193 50.4744 27.0433 50.3784C27.2673 50.2744 27.4593 50.1264 27.6193 49.9344C27.7873 49.7424 27.9153 49.5024 28.0033 49.2144C28.0993 48.9264 28.1473 48.5944 28.1473 48.2184V47.9784C28.1473 47.6344 28.0993 47.3264 28.0033 47.0544C27.9153 46.7824 27.7873 46.5544 27.6193 46.3704C27.4593 46.1784 27.2673 46.0344 27.0433 45.9384C26.8193 45.8424 26.5793 45.7944 26.3233 45.7944C26.0353 45.7944 25.7713 45.8424 25.5313 45.9384C25.2913 46.0264 25.0873 46.1544 24.9193 46.3224C24.7513 46.4824 24.6193 46.6744 24.5233 46.8984C24.4273 47.1224 24.3793 47.3624 24.3793 47.6184V48.5784C24.3793 48.8664 24.4273 49.1304 24.5233 49.3704C24.6193 49.6104 24.7513 49.8144 24.9193 49.9824C25.0873 50.1504 25.2913 50.2824 25.5313 50.3784C25.7713 50.4744 26.0353 50.5224 26.3233 50.5224ZM32.8661 51.4584C32.0661 51.4584 31.4381 51.2904 30.9821 50.9544C30.5261 50.6184 30.2741 50.1464 30.2261 49.5384H31.2821C31.3381 49.8504 31.5021 50.0904 31.7741 50.2584C32.0541 50.4184 32.4181 50.4984 32.8661 50.4984C33.4181 50.4984 33.8181 50.4064 34.0661 50.2224C34.3221 50.0304 34.4501 49.8024 34.4501 49.5384C34.4501 49.2264 34.3461 48.9824 34.1381 48.8064C33.9301 48.6224 33.5701 48.5304 33.0581 48.5304H31.9661V47.6664H32.9861C33.4261 47.6664 33.7381 47.5824 33.9221 47.4144C34.1141 47.2464 34.2101 47.0104 34.2101 46.7064C34.2101 46.4664 34.0981 46.2584 33.8741 46.0824C33.6501 45.9064 33.3141 45.8184 32.8661 45.8184C32.3781 45.8184 32.0221 45.8984 31.7981 46.0584C31.5821 46.2104 31.4501 46.4304 31.4021 46.7184H30.3461C30.3701 46.4544 30.4421 46.2104 30.5621 45.9864C30.6901 45.7544 30.8621 45.5544 31.0781 45.3864C31.2941 45.2184 31.5501 45.0904 31.8461 45.0024C32.1501 44.9064 32.4901 44.8584 32.8661 44.8584C33.2741 44.8584 33.6261 44.9064 33.9221 45.0024C34.2261 45.0904 34.4781 45.2184 34.6781 45.3864C34.8781 45.5464 35.0261 45.7384 35.1221 45.9624C35.2181 46.1864 35.2661 46.4344 35.2661 46.7064C35.2661 47.0104 35.1901 47.2784 35.0381 47.5104C34.8861 47.7344 34.6421 47.9104 34.3061 48.0384C34.7541 48.1584 35.0661 48.3504 35.2421 48.6144C35.4181 48.8784 35.5061 49.1864 35.5061 49.5384C35.5061 49.8024 35.4501 50.0504 35.3381 50.2824C35.2261 50.5144 35.0581 50.7184 34.8341 50.8944C34.6181 51.0624 34.3421 51.1984 34.0061 51.3024C33.6781 51.4064 33.2981 51.4584 32.8661 51.4584ZM37.0108 44.9784H38.0668V49.7784L41.3548 44.9784H42.4108V51.3384H41.3548V46.5384L38.0668 51.3384H37.0108V44.9784ZM44.335 44.9784H45.391V47.6304H48.679V44.9784H49.735V51.3384H48.679V48.5664H45.391V51.3384H44.335V44.9784ZM53.4712 51.4584C53.1192 51.4584 52.8072 51.4104 52.5352 51.3144C52.2712 51.2104 52.0472 51.0704 51.8632 50.8944C51.6792 50.7184 51.5392 50.5104 51.4432 50.2704C51.3472 50.0304 51.2992 49.7664 51.2992 49.4784C51.2992 48.8464 51.4832 48.3904 51.8512 48.1104C52.2272 47.8304 52.7632 47.6904 53.4592 47.6904H55.5232V47.2584C55.5232 46.7144 55.3992 46.3384 55.1512 46.1304C54.9112 45.9224 54.5472 45.8184 54.0592 45.8184C53.6032 45.8184 53.2712 45.9064 53.0632 46.0824C52.8552 46.2504 52.7392 46.4424 52.7152 46.6584H51.6592C51.6752 46.4024 51.7432 46.1664 51.8632 45.9504C51.9912 45.7264 52.1592 45.5344 52.3672 45.3744C52.5832 45.2144 52.8392 45.0904 53.1352 45.0024C53.4312 44.9064 53.7592 44.8584 54.1192 44.8584C54.8712 44.8584 55.4672 45.0384 55.9072 45.3984C56.3552 45.7504 56.5792 46.3304 56.5792 47.1384V49.7184C56.5792 50.0544 56.5792 50.3504 56.5792 50.6064C56.5872 50.8544 56.6072 51.0984 56.6392 51.3384H55.7152C55.6912 51.1544 55.6752 50.9824 55.6672 50.8224C55.6592 50.6544 55.6552 50.4664 55.6552 50.2584C55.4872 50.5944 55.2152 50.8784 54.8392 51.1104C54.4632 51.3424 54.0072 51.4584 53.4712 51.4584ZM53.6992 50.4984C53.9472 50.4984 54.1792 50.4664 54.3952 50.4024C54.6192 50.3304 54.8152 50.2304 54.9832 50.1024C55.1512 49.9664 55.2832 49.8024 55.3792 49.6104C55.4752 49.4184 55.5232 49.1944 55.5232 48.9384V48.5064H53.6392C53.2472 48.5064 52.9392 48.5864 52.7152 48.7464C52.4912 48.8984 52.3792 49.1424 52.3792 49.4784C52.3792 49.7744 52.4832 50.0184 52.6912 50.2104C52.9072 50.4024 53.2432 50.4984 53.6992 50.4984Z" fill="#6E7191"/>
<path d="M17.875 9.21338H20.8004C21.3587 9.21339 21.9001 9.39666 22.3349 9.73277C22.7696 10.0689 23.0715 10.5376 23.1904 11.0611L23.9816 14.5215M23.9816 14.5215L25.3307 21.6842C25.6322 23.3102 26.5193 24.7828 27.8371 25.8449C29.1548 26.9069 30.8195 27.4909 32.5403 27.4946H35.8409C37.506 27.4912 39.1204 26.9444 40.4188 25.9439C41.7173 24.9435 42.6226 23.5489 42.986 21.9893L44.2347 16.6846C44.2964 16.4264 44.2968 16.1582 44.2358 15.8999C44.1748 15.6415 44.0541 15.3996 43.8825 15.1921C43.711 14.9846 43.493 14.8168 43.2447 14.7011C42.9964 14.5854 42.7242 14.5248 42.4482 14.5238L23.9816 14.5215Z" stroke="#6E7191" stroke-width="2" stroke-linecap="round"/>
<path d="M27.0157 35.4634C27.5766 35.4634 28.0313 35.0087 28.0313 34.4478C28.0313 33.8868 27.5766 33.4321 27.0157 33.4321C26.4548 33.4321 26.0001 33.8868 26.0001 34.4478C26.0001 35.0087 26.4548 35.4634 27.0157 35.4634Z" stroke="#6E7191" stroke-width="2"/>
<path d="M41.2343 35.4634C41.7952 35.4634 42.2499 35.0087 42.2499 34.4478C42.2499 33.8868 41.7952 33.4321 41.2343 33.4321C40.6734 33.4321 40.2187 33.8868 40.2187 34.4478C40.2187 35.0087 40.6734 35.4634 41.2343 35.4634Z" stroke="#6E7191" stroke-width="2"/>
</svg>
