<svg width="66" height="55" viewBox="0 0 66 55" fill="none" xmlns="http://www.w3.org/2000/svg">
<path d="M1.2 42.9384H2.328V49.5384L6.792 42.9384H7.92V51.3384H6.792V44.7384L2.328 51.3384H1.2V42.9384ZM12.2372 51.4584C11.4372 51.4584 10.8092 51.2904 10.3532 50.9544C9.89719 50.6184 9.64519 50.1464 9.59719 49.5384H10.6532C10.7092 49.8504 10.8732 50.0904 11.1452 50.2584C11.4252 50.4184 11.7892 50.4984 12.2372 50.4984C12.7892 50.4984 13.1892 50.4064 13.4372 50.2224C13.6932 50.0304 13.8212 49.8024 13.8212 49.5384C13.8212 49.2264 13.7172 48.9824 13.5092 48.8064C13.3012 48.6224 12.9412 48.5304 12.4292 48.5304H11.3372V47.6664H12.3572C12.7972 47.6664 13.1092 47.5824 13.2932 47.4144C13.4852 47.2464 13.5812 47.0104 13.5812 46.7064C13.5812 46.4664 13.4692 46.2584 13.2452 46.0824C13.0212 45.9064 12.6852 45.8184 12.2372 45.8184C11.7492 45.8184 11.3932 45.8984 11.1692 46.0584C10.9532 46.2104 10.8212 46.4304 10.7732 46.7184H9.71719C9.74119 46.4544 9.81319 46.2104 9.93319 45.9864C10.0612 45.7544 10.2332 45.5544 10.4492 45.3864C10.6652 45.2184 10.9212 45.0904 11.2172 45.0024C11.5212 44.9064 11.8612 44.8584 12.2372 44.8584C12.6452 44.8584 12.9972 44.9064 13.2932 45.0024C13.5972 45.0904 13.8492 45.2184 14.0492 45.3864C14.2492 45.5464 14.3972 45.7384 14.4932 45.9624C14.5892 46.1864 14.6372 46.4344 14.6372 46.7064C14.6372 47.0104 14.5612 47.2784 14.4092 47.5104C14.2572 47.7344 14.0132 47.9104 13.6772 48.0384C14.1252 48.1584 14.4372 48.3504 14.6132 48.6144C14.7892 48.8784 14.8772 49.1864 14.8772 49.5384C14.8772 49.8024 14.8212 50.0504 14.7092 50.2824C14.5972 50.5144 14.4292 50.7184 14.2052 50.8944C13.9892 51.0624 13.7132 51.1984 13.3772 51.3024C13.0492 51.4064 12.6692 51.4584 12.2372 51.4584ZM19.0219 51.4584C18.5979 51.4584 18.2019 51.3784 17.8339 51.2184C17.4739 51.0584 17.1579 50.8264 16.8859 50.5224C16.6219 50.2104 16.4099 49.8304 16.2499 49.3824C16.0979 48.9344 16.0219 48.4264 16.0219 47.8584V47.6184C16.0219 46.8984 16.0739 46.2584 16.1779 45.6984C16.2819 45.1304 16.4579 44.6504 16.7059 44.2584C16.9619 43.8584 17.2939 43.5464 17.7019 43.3224C18.1179 43.0984 18.6379 42.9704 19.2619 42.9384C19.7659 42.9144 20.2059 42.8944 20.5819 42.8784C20.9579 42.8544 21.2779 42.7744 21.5419 42.6384V43.6584C21.4139 43.7304 21.1779 43.7864 20.8339 43.8264C20.4979 43.8664 20.0339 43.8944 19.4419 43.9104C19.0579 43.9184 18.7179 43.9664 18.4219 44.0544C18.1339 44.1424 17.8859 44.2824 17.6779 44.4744C17.4779 44.6664 17.3179 44.9184 17.1979 45.2304C17.0859 45.5344 17.0139 45.9104 16.9819 46.3584C17.1739 45.9344 17.4699 45.5984 17.8699 45.3504C18.2699 45.1024 18.7339 44.9784 19.2619 44.9784C19.6699 44.9784 20.0419 45.0504 20.3779 45.1944C20.7139 45.3304 21.0019 45.5264 21.2419 45.7824C21.4899 46.0384 21.6819 46.3544 21.8179 46.7304C21.9539 47.0984 22.0219 47.5144 22.0219 47.9784V48.2184C22.0219 48.7144 21.9459 49.1624 21.7939 49.5624C21.6419 49.9544 21.4339 50.2944 21.1699 50.5824C20.9059 50.8624 20.5899 51.0784 20.2219 51.2304C19.8539 51.3824 19.4539 51.4584 19.0219 51.4584ZM19.0219 50.4984C19.5819 50.4984 20.0419 50.3064 20.4019 49.9224C20.7619 49.5304 20.9419 48.9624 20.9419 48.2184V47.9784C20.9419 47.6664 20.8939 47.3864 20.7979 47.1384C20.7019 46.8904 20.5699 46.6784 20.4019 46.5024C20.2339 46.3184 20.0299 46.1784 19.7899 46.0824C19.5579 45.9864 19.3019 45.9384 19.0219 45.9384C18.7419 45.9384 18.4819 45.9864 18.2419 46.0824C18.0099 46.1784 17.8099 46.3184 17.6419 46.5024C17.4739 46.6784 17.3419 46.8904 17.2459 47.1384C17.1499 47.3864 17.1019 47.6664 17.1019 47.9784V48.2184C17.1019 48.5704 17.1499 48.8904 17.2459 49.1784C17.3499 49.4584 17.4899 49.6984 17.6659 49.8984C17.8419 50.0904 18.0459 50.2384 18.2779 50.3424C18.5099 50.4464 18.7579 50.4984 19.0219 50.4984ZM23.5186 44.9784H24.5026V46.1784C24.7186 45.7544 25.0186 45.4304 25.4026 45.2064C25.7946 44.9744 26.2466 44.8584 26.7586 44.8584C27.5586 44.8584 28.1986 45.1224 28.6786 45.6504C29.1586 46.1704 29.3986 46.9464 29.3986 47.9784V48.2184C29.3986 48.7624 29.3346 49.2384 29.2066 49.6464C29.0786 50.0464 28.8986 50.3824 28.6666 50.6544C28.4346 50.9184 28.1546 51.1184 27.8266 51.2544C27.5066 51.3904 27.1506 51.4584 26.7586 51.4584C26.2146 51.4584 25.7586 51.3384 25.3906 51.0984C25.0306 50.8584 24.7586 50.5584 24.5746 50.1984V53.7384H23.5186V44.9784ZM26.5186 50.5224C26.7746 50.5224 27.0146 50.4744 27.2386 50.3784C27.4626 50.2744 27.6546 50.1264 27.8146 49.9344C27.9826 49.7424 28.1106 49.5024 28.1986 49.2144C28.2946 48.9264 28.3426 48.5944 28.3426 48.2184V47.9784C28.3426 47.6344 28.2946 47.3264 28.1986 47.0544C28.1106 46.7824 27.9826 46.5544 27.8146 46.3704C27.6546 46.1784 27.4626 46.0344 27.2386 45.9384C27.0146 45.8424 26.7746 45.7944 26.5186 45.7944C26.2306 45.7944 25.9666 45.8424 25.7266 45.9384C25.4866 46.0264 25.2826 46.1544 25.1146 46.3224C24.9466 46.4824 24.8146 46.6744 24.7186 46.8984C24.6226 47.1224 24.5746 47.3624 24.5746 47.6184V48.5784C24.5746 48.8664 24.6226 49.1304 24.7186 49.3704C24.8146 49.6104 24.9466 49.8144 25.1146 49.9824C25.2826 50.1504 25.4866 50.2824 25.7266 50.3784C25.9666 50.4744 26.2306 50.5224 26.5186 50.5224ZM32.7134 51.4584C32.3614 51.4584 32.0494 51.4104 31.7774 51.3144C31.5134 51.2104 31.2894 51.0704 31.1054 50.8944C30.9214 50.7184 30.7814 50.5104 30.6854 50.2704C30.5894 50.0304 30.5414 49.7664 30.5414 49.4784C30.5414 48.8464 30.7254 48.3904 31.0934 48.1104C31.4694 47.8304 32.0054 47.6904 32.7014 47.6904H34.7654V47.2584C34.7654 46.7144 34.6414 46.3384 34.3934 46.1304C34.1534 45.9224 33.7894 45.8184 33.3014 45.8184C32.8454 45.8184 32.5134 45.9064 32.3054 46.0824C32.0974 46.2504 31.9814 46.4424 31.9574 46.6584H30.9014C30.9174 46.4024 30.9854 46.1664 31.1054 45.9504C31.2334 45.7264 31.4014 45.5344 31.6094 45.3744C31.8254 45.2144 32.0814 45.0904 32.3774 45.0024C32.6734 44.9064 33.0014 44.8584 33.3614 44.8584C34.1134 44.8584 34.7094 45.0384 35.1494 45.3984C35.5974 45.7504 35.8214 46.3304 35.8214 47.1384V49.7184C35.8214 50.0544 35.8214 50.3504 35.8214 50.6064C35.8294 50.8544 35.8494 51.0984 35.8814 51.3384H34.9574C34.9334 51.1544 34.9174 50.9824 34.9094 50.8224C34.9014 50.6544 34.8974 50.4664 34.8974 50.2584C34.7294 50.5944 34.4574 50.8784 34.0814 51.1104C33.7054 51.3424 33.2494 51.4584 32.7134 51.4584ZM32.9414 50.4984C33.1894 50.4984 33.4214 50.4664 33.6374 50.4024C33.8614 50.3304 34.0574 50.2304 34.2254 50.1024C34.3934 49.9664 34.5254 49.8024 34.6214 49.6104C34.7174 49.4184 34.7654 49.1944 34.7654 48.9384V48.5064H32.8814C32.4894 48.5064 32.1814 48.5864 31.9574 48.7464C31.7334 48.8984 31.6214 49.1424 31.6214 49.4784C31.6214 49.7744 31.7254 50.0184 31.9334 50.2104C32.1494 50.4024 32.4854 50.4984 32.9414 50.4984ZM37.6866 44.9784H38.7426V47.6304H42.0306V44.9784H43.0866V51.3384H42.0306V48.5664H38.7426V51.3384H37.6866V44.9784ZM45.0108 44.9784H46.0668V47.6304H49.3548V44.9784H50.4108V51.3384H49.3548V48.5664H46.0668V51.3384H45.0108V44.9784ZM54.975 51.4584C54.567 51.4584 54.179 51.3944 53.811 51.2664C53.443 51.1304 53.119 50.9304 52.839 50.6664C52.559 50.3944 52.335 50.0544 52.167 49.6464C51.999 49.2384 51.915 48.7624 51.915 48.2184V47.9784C51.915 47.4664 51.999 47.0144 52.167 46.6224C52.335 46.2304 52.559 45.9064 52.839 45.6504C53.119 45.3864 53.443 45.1904 53.811 45.0624C54.179 44.9264 54.567 44.8584 54.975 44.8584C55.383 44.8584 55.771 44.9264 56.139 45.0624C56.507 45.1904 56.831 45.3864 57.111 45.6504C57.391 45.9064 57.615 46.2304 57.783 46.6224C57.951 47.0144 58.035 47.4664 58.035 47.9784V48.2184C58.035 48.7624 57.951 49.2384 57.783 49.6464C57.615 50.0544 57.391 50.3944 57.111 50.6664C56.831 50.9304 56.507 51.1304 56.139 51.2664C55.771 51.3944 55.383 51.4584 54.975 51.4584ZM54.975 50.4984C55.215 50.4984 55.455 50.4584 55.695 50.3784C55.935 50.2904 56.147 50.1584 56.331 49.9824C56.515 49.7984 56.663 49.5624 56.775 49.2744C56.895 48.9864 56.955 48.6344 56.955 48.2184V47.9784C56.955 47.5944 56.895 47.2664 56.775 46.9944C56.663 46.7224 56.515 46.4984 56.331 46.3224C56.147 46.1464 55.935 46.0184 55.695 45.9384C55.455 45.8584 55.215 45.8184 54.975 45.8184C54.735 45.8184 54.495 45.8584 54.255 45.9384C54.015 46.0184 53.803 46.1464 53.619 46.3224C53.435 46.4984 53.283 46.7224 53.163 46.9944C53.051 47.2664 52.995 47.5944 52.995 47.9784V48.2184C52.995 48.6344 53.051 48.9864 53.163 49.2744C53.283 49.5624 53.435 49.7984 53.619 49.9824C53.803 50.1584 54.015 50.2904 54.255 50.3784C54.495 50.4584 54.735 50.4984 54.975 50.4984ZM62.1703 51.4584C61.7623 51.4584 61.3743 51.3944 61.0063 51.2664C60.6383 51.1384 60.3143 50.9424 60.0343 50.6784C59.7543 50.4064 59.5303 50.0664 59.3623 49.6584C59.1943 49.2504 59.1103 48.7704 59.1103 48.2184V47.9784C59.1103 47.4504 59.1903 46.9944 59.3503 46.6104C59.5103 46.2184 59.7223 45.8944 59.9863 45.6384C60.2583 45.3744 60.5703 45.1784 60.9223 45.0504C61.2823 44.9224 61.6583 44.8584 62.0503 44.8584C62.9863 44.8584 63.7103 45.1144 64.2223 45.6264C64.7343 46.1384 64.9903 46.8624 64.9903 47.7984V48.4704H60.1663C60.1663 48.8464 60.2263 49.1624 60.3463 49.4184C60.4663 49.6744 60.6223 49.8824 60.8143 50.0424C61.0063 50.2024 61.2183 50.3184 61.4503 50.3904C61.6903 50.4624 61.9303 50.4984 62.1703 50.4984C62.6503 50.4984 63.0183 50.4184 63.2743 50.2584C63.5383 50.0984 63.7263 49.8784 63.8383 49.5984H64.8703C64.8063 49.9024 64.6903 50.1704 64.5223 50.4024C64.3623 50.6344 64.1623 50.8304 63.9223 50.9904C63.6903 51.1424 63.4223 51.2584 63.1183 51.3384C62.8223 51.4184 62.5063 51.4584 62.1703 51.4584ZM62.1103 45.8184C61.8623 45.8184 61.6223 45.8544 61.3903 45.9264C61.1583 45.9904 60.9503 46.0984 60.7663 46.2504C60.5903 46.3944 60.4463 46.5784 60.3343 46.8024C60.2223 47.0264 60.1663 47.2944 60.1663 47.6064H63.9943C63.9863 47.2784 63.9303 47.0024 63.8263 46.7784C63.7303 46.5464 63.5983 46.3624 63.4303 46.2264C63.2623 46.0824 63.0623 45.9784 62.8303 45.9144C62.6063 45.8504 62.3663 45.8184 62.1103 45.8184Z" fill="#6E7191"/>
<path d="M35.0602 28.9632L43.3635 34.5328C43.4661 34.6016 43.5862 34.642 43.7108 34.6496C43.8354 34.6571 43.9598 34.6316 44.0705 34.5757C44.1812 34.5199 44.2739 34.4358 44.3386 34.3326C44.4033 34.2295 44.4375 34.1112 44.4375 33.9906V16.3073C44.4375 14.9065 43.8613 13.5632 42.8357 12.5728C41.81 11.5823 40.4189 11.0259 38.9684 11.0259H28.0316C26.5811 11.0259 25.19 11.5823 24.1643 12.5728C23.1387 13.5632 22.5625 14.9065 22.5625 16.3073V33.9894C22.5625 34.11 22.5967 34.2283 22.6614 34.3315C22.7261 34.4346 22.8188 34.5187 22.9295 34.5746C23.0402 34.6304 23.1646 34.656 23.2892 34.6484C23.4138 34.6408 23.5339 34.6004 23.6365 34.5316L31.941 28.962C32.399 28.6551 32.9433 28.4907 33.5008 28.4909C34.0583 28.4911 34.6025 28.6559 35.0602 28.9632V28.9632Z" stroke="#6E7191" stroke-width="2" stroke-linecap="round" stroke-linejoin="round"/>
</svg>
