<svg width="66" height="55" viewBox="0 0 66 55" fill="none" xmlns="http://www.w3.org/2000/svg">
<path d="M8.2 42.9384H14.8V51.3384H13.672V43.9224H9.328V51.3384H8.2V42.9384ZM16.96 44.9784H17.944V46.1784C18.16 45.7544 18.46 45.4304 18.844 45.2064C19.236 44.9744 19.688 44.8584 20.2 44.8584C21 44.8584 21.64 45.1224 22.12 45.6504C22.6 46.1704 22.84 46.9464 22.84 47.9784V48.2184C22.84 48.7624 22.776 49.2384 22.648 49.6464C22.52 50.0464 22.34 50.3824 22.108 50.6544C21.876 50.9184 21.596 51.1184 21.268 51.2544C20.948 51.3904 20.592 51.4584 20.2 51.4584C19.656 51.4584 19.2 51.3384 18.832 51.0984C18.472 50.8584 18.2 50.5584 18.016 50.1984V53.7384H16.96V44.9784ZM19.96 50.5224C20.216 50.5224 20.456 50.4744 20.68 50.3784C20.904 50.2744 21.096 50.1264 21.256 49.9344C21.424 49.7424 21.552 49.5024 21.64 49.2144C21.736 48.9264 21.784 48.5944 21.784 48.2184V47.9784C21.784 47.6344 21.736 47.3264 21.64 47.0544C21.552 46.7824 21.424 46.5544 21.256 46.3704C21.096 46.1784 20.904 46.0344 20.68 45.9384C20.456 45.8424 20.216 45.7944 19.96 45.7944C19.672 45.7944 19.408 45.8424 19.168 45.9384C18.928 46.0264 18.724 46.1544 18.556 46.3224C18.388 46.4824 18.256 46.6744 18.16 46.8984C18.064 47.1224 18.016 47.3624 18.016 47.6184V48.5784C18.016 48.8664 18.064 49.1304 18.16 49.3704C18.256 49.6104 18.388 49.8144 18.556 49.9824C18.724 50.1504 18.928 50.2824 19.168 50.3784C19.408 50.4744 19.672 50.5224 19.96 50.5224ZM26.9828 51.4584C26.5748 51.4584 26.1868 51.3944 25.8188 51.2664C25.4508 51.1304 25.1268 50.9304 24.8468 50.6664C24.5668 50.3944 24.3428 50.0544 24.1748 49.6464C24.0068 49.2384 23.9228 48.7624 23.9228 48.2184V47.9784C23.9228 47.4664 24.0068 47.0144 24.1748 46.6224C24.3428 46.2304 24.5668 45.9064 24.8468 45.6504C25.1268 45.3864 25.4508 45.1904 25.8188 45.0624C26.1868 44.9264 26.5748 44.8584 26.9828 44.8584C27.3908 44.8584 27.7788 44.9264 28.1468 45.0624C28.5148 45.1904 28.8388 45.3864 29.1188 45.6504C29.3988 45.9064 29.6228 46.2304 29.7908 46.6224C29.9588 47.0144 30.0428 47.4664 30.0428 47.9784V48.2184C30.0428 48.7624 29.9588 49.2384 29.7908 49.6464C29.6228 50.0544 29.3988 50.3944 29.1188 50.6664C28.8388 50.9304 28.5148 51.1304 28.1468 51.2664C27.7788 51.3944 27.3908 51.4584 26.9828 51.4584ZM26.9828 50.4984C27.2228 50.4984 27.4628 50.4584 27.7028 50.3784C27.9428 50.2904 28.1548 50.1584 28.3388 49.9824C28.5228 49.7984 28.6708 49.5624 28.7828 49.2744C28.9028 48.9864 28.9628 48.6344 28.9628 48.2184V47.9784C28.9628 47.5944 28.9028 47.2664 28.7828 46.9944C28.6708 46.7224 28.5228 46.4984 28.3388 46.3224C28.1548 46.1464 27.9428 46.0184 27.7028 45.9384C27.4628 45.8584 27.2228 45.8184 26.9828 45.8184C26.7428 45.8184 26.5028 45.8584 26.2628 45.9384C26.0228 46.0184 25.8108 46.1464 25.6268 46.3224C25.4428 46.4984 25.2908 46.7224 25.1708 46.9944C25.0588 47.2664 25.0028 47.5944 25.0028 47.9784V48.2184C25.0028 48.6344 25.0588 48.9864 25.1708 49.2744C25.2908 49.5624 25.4428 49.7984 25.6268 49.9824C25.8108 50.1584 26.0228 50.2904 26.2628 50.3784C26.5028 50.4584 26.7428 50.4984 26.9828 50.4984ZM34.4901 51.4584C33.3861 51.4584 32.5461 51.1784 31.9701 50.6184C31.4021 50.0584 31.1181 49.2624 31.1181 48.2304V47.9904C31.1181 47.0064 31.4021 46.2384 31.9701 45.6864C32.5461 45.1344 33.3861 44.8584 34.4901 44.8584V42.9384H35.5461V44.8584C36.6501 44.8584 37.4861 45.1344 38.0541 45.6864C38.6301 46.2384 38.9181 47.0064 38.9181 47.9904V48.2304C38.9181 49.2624 38.6301 50.0584 38.0541 50.6184C37.4861 51.1784 36.6501 51.4584 35.5461 51.4584V53.7384H34.4901V51.4584ZM37.8381 47.9904C37.8381 47.2624 37.6501 46.7184 37.2741 46.3584C36.9061 45.9984 36.3261 45.8184 35.5341 45.8184V50.4984C36.3261 50.4984 36.9061 50.3144 37.2741 49.9464C37.6501 49.5784 37.8381 49.0064 37.8381 48.2304V47.9904ZM32.1981 48.2304C32.1981 49.0064 32.3821 49.5784 32.7501 49.9464C33.1261 50.3144 33.7101 50.4984 34.5021 50.4984V45.8184C33.7101 45.8184 33.1261 45.9984 32.7501 46.3584C32.3821 46.7184 32.1981 47.2624 32.1981 47.9904V48.2304ZM40.4209 44.9784H41.4769V49.7784L44.7649 44.9784H45.8209V51.3384H44.7649V46.5384L41.4769 51.3384H40.4209V44.9784ZM47.4452 51.4584C47.3252 51.4584 47.2052 51.4464 47.0852 51.4224V50.3664C47.1252 50.3744 47.1852 50.3784 47.2652 50.3784C47.4412 50.3784 47.5932 50.3224 47.7212 50.2104C47.8572 50.0984 47.9652 49.9024 48.0452 49.6224C48.1252 49.3424 48.1852 48.9624 48.2252 48.4824C48.2652 48.0024 48.2852 47.3944 48.2852 46.6584V44.9784H52.8452V51.3384H51.7892V45.9144H49.3412V46.8984C49.3412 47.7864 49.3012 48.5224 49.2212 49.1064C49.1412 49.6904 49.0212 50.1584 48.8612 50.5104C48.7092 50.8544 48.5132 51.0984 48.2732 51.2424C48.0332 51.3864 47.7572 51.4584 47.4452 51.4584ZM54.7647 44.9784H55.8207V47.3784H57.3447C58.1447 47.3784 58.7327 47.5544 59.1087 47.9064C59.4927 48.2584 59.6847 48.7464 59.6847 49.3704C59.6847 49.9784 59.4927 50.4584 59.1087 50.8104C58.7327 51.1624 58.1447 51.3384 57.3447 51.3384H54.7647V44.9784ZM57.2847 50.4024C57.7807 50.4024 58.1287 50.3144 58.3287 50.1384C58.5287 49.9624 58.6287 49.7024 58.6287 49.3584C58.6287 49.0144 58.5287 48.7544 58.3287 48.5784C58.1287 48.4024 57.7807 48.3144 57.2847 48.3144H55.8207V50.4024H57.2847Z" fill="#6E7191"/>
<path d="M42.6232 27.4288C39.9266 25.8344 36.7682 24.9164 33.5007 24.7771C30.2331 24.9164 27.0748 25.8344 24.3781 27.4288C23.6906 27.8746 23.1267 28.4463 22.727 29.1025C22.3273 29.7587 22.1019 30.4831 22.0669 31.2233L21.6875 34.6509H45.3125L44.9345 31.2233C44.8994 30.4831 44.6739 29.7587 44.2742 29.1025C43.8745 28.4464 43.3106 27.8747 42.6232 27.4288V27.4288Z" stroke="#6E7191" stroke-width="2" stroke-linecap="round" stroke-linejoin="round"/>
<path d="M33.5 21.1509C34.5013 21.1509 35.48 20.854 36.3126 20.2977C37.1451 19.7414 37.794 18.9508 38.1771 18.0257C38.5603 17.1007 38.6606 16.0828 38.4652 15.1007C38.2699 14.1187 37.7877 13.2167 37.0797 12.5087C36.3717 11.8006 35.4697 11.3185 34.4876 11.1232C33.5056 10.9278 32.4877 11.0281 31.5627 11.4112C30.6376 11.7944 29.847 12.4433 29.2907 13.2758C28.7344 14.1083 28.4375 15.0871 28.4375 16.0884C28.4375 17.431 28.9709 18.7187 29.9203 19.6681C30.8697 20.6175 32.1573 21.1509 33.5 21.1509V21.1509Z" stroke="#6E7191" stroke-width="2" stroke-linecap="round" stroke-linejoin="round"/>
</svg>
